name rise32.9588peak41.5061fall63.4684.mot
datacolumns 19
datarows 20
range 18.27493400000000 18.30659700000000
endheader
time	ground_force1_vx	ground_force1_vy	ground_force1_vz	ground_force1_px	ground_force1_py	ground_force1_pz	ground_force2_vx	ground_force2_vy	ground_force2_vz	ground_force2_px	ground_force2_py	ground_force2_pz	ground_torque1_x	ground_torque1_y	ground_torque1_z	ground_torque2_x	ground_torque2_y	ground_torque2_z	
18.27493400000000	-6.60252400000000	42.07555000000000	-11.74943800000000	0.24862400000000	0.00000000000000	0.06812400000000	-39.01471600000000	761.24951299999998	-51.53862000000000	0.08774300000000	0.00000000000000	-0.08546800000000	0.00000000000000	-6.83279200000000	0.00000000000000	0.00000000000000	-13.32052600000000	0.00000000000000	
18.27659700000000	-7.14427200000000	49.78041100000000	-13.23785800000000	0.25440800000000	0.00000000000000	0.06925800000000	-39.48677100000000	758.20032000000003	-51.19012700000000	0.08704800000000	0.00000000000000	-0.08542600000000	0.00000000000000	-7.79617500000000	0.00000000000000	0.00000000000000	-13.30349600000000	0.00000000000000	
18.27826000000000	-7.53371500000000	57.70291100000000	-14.60021100000000	0.25972400000000	0.00000000000000	0.07026100000000	-39.99133000000000	755.06288900000004	-50.82039100000000	0.08635200000000	0.00000000000000	-0.08537900000000	0.00000000000000	-8.70422500000000	0.00000000000000	0.00000000000000	-13.29210300000000	0.00000000000000	
18.27993500000000	-7.75214300000000	65.74998500000000	-15.80572900000000	0.26465700000000	0.00000000000000	0.07115700000000	-40.52751400000000	751.83461399999999	-50.42915300000000	0.08565600000000	0.00000000000000	-0.08532700000000	0.00000000000000	-9.53696700000000	0.00000000000000	0.00000000000000	-13.28620600000000	0.00000000000000	
18.28160200000000	-7.78888400000000	73.84796000000000	-16.83393900000000	0.26927200000000	0.00000000000000	0.07196400000000	-41.09429600000000	748.51272800000004	-50.01617100000000	0.08496300000000	0.00000000000000	-0.08527000000000	0.00000000000000	-10.28018800000000	0.00000000000000	0.00000000000000	-13.28563200000000	0.00000000000000	
18.28326200000000	-7.64111600000000	81.94523000000000	-17.67482200000000	0.27362000000000	0.00000000000000	0.07269600000000	-41.69051200000000	745.09432000000004	-49.58122100000000	0.08427300000000	0.00000000000000	-0.08520800000000	0.00000000000000	-10.92572900000000	0.00000000000000	0.00000000000000	-13.29018500000000	0.00000000000000	
18.28493300000000	-7.31306500000000	90.01266099999999	-18.32808600000000	0.27774000000000	0.00000000000000	0.07336500000000	-42.31485800000000	741.57633999999996	-49.12410600000000	0.08359000000000	0.00000000000000	-0.08514000000000	0.00000000000000	-11.47122800000000	0.00000000000000	0.00000000000000	-13.29963900000000	0.00000000000000	
18.28659400000000	-6.81477200000000	98.04207000000000	-18.80177100000000	0.28166200000000	0.00000000000000	0.07398000000000	-42.96589500000000	737.95561399999997	-48.64465000000000	0.08291400000000	0.00000000000000	-0.08506600000000	0.00000000000000	-11.91944400000000	0.00000000000000	0.00000000000000	-13.31374200000000	0.00000000000000	
18.28826200000000	-6.16059600000000	106.04323800000000	-19.11040900000000	0.28541200000000	0.00000000000000	0.07454800000000	-43.64205000000000	734.22885399999996	-48.14270500000000	0.08224800000000	0.00000000000000	-0.08498700000000	0.00000000000000	-12.27726700000000	0.00000000000000	0.00000000000000	-13.33221500000000	0.00000000000000	
18.28993400000000	-5.36762600000000	114.03996700000000	-19.27297200000000	0.28900900000000	0.00000000000000	0.07507600000000	-44.34161900000000	730.39267600000005	-47.61815200000000	0.08159400000000	0.00000000000000	-0.08490100000000	0.00000000000000	-12.55455700000000	0.00000000000000	0.00000000000000	-13.35475500000000	0.00000000000000	
18.29159500000000	-4.45414700000000	122.06565800000000	-19.31081900000000	0.29246800000000	0.00000000000000	0.07556900000000	-45.06277500000000	726.44361100000003	-47.07090300000000	0.08095300000000	0.00000000000000	-0.08480800000000	0.00000000000000	-12.76294500000000	0.00000000000000	0.00000000000000	-13.38103000000000	0.00000000000000	
18.29326700000000	-3.43827700000000	130.15888000000001	-19.24579400000000	0.29580300000000	0.00000000000000	0.07603000000000	-45.80356900000000	722.37812399999996	-46.50090400000000	0.08032700000000	0.00000000000000	-0.08470900000000	0.00000000000000	-12.91467800000000	0.00000000000000	0.00000000000000	-13.41068700000000	0.00000000000000	
18.29493400000000	-2.33685100000000	138.35925300000000	-19.09862200000000	0.29902400000000	0.00000000000000	0.07646300000000	-46.56193400000000	718.19263100000001	-45.90813900000000	0.07971900000000	0.00000000000000	-0.08460400000000	0.00000000000000	-13.02162300000000	0.00000000000000	0.00000000000000	-13.44335000000000	0.00000000000000	
18.29660000000000	-1.16460400000000	146.70394600000000	-18.88766500000000	0.30214000000000	0.00000000000000	0.07687200000000	-47.33569300000000	713.88351799999998	-45.29262700000000	0.07912900000000	0.00000000000000	-0.08449100000000	0.00000000000000	-13.09445700000000	0.00000000000000	0.00000000000000	-13.47861800000000	0.00000000000000	
18.29826600000000	0.06634100000000	155.22492800000001	-18.62806500000000	0.30515800000000	0.00000000000000	0.07726000000000	-48.12256400000000	709.44716100000005	-44.65443200000000	0.07856000000000	0.00000000000000	-0.08437100000000	0.00000000000000	-13.14208700000000	0.00000000000000	0.00000000000000	-13.51607000000000	0.00000000000000	
18.29993200000000	1.34670000000000	163.94706400000001	-18.33129600000000	0.30808300000000	0.00000000000000	0.07762700000000	-48.92016600000000	704.87994800000001	-43.99366000000000	0.07801300000000	0.00000000000000	-0.08424500000000	0.00000000000000	-13.17130600000000	0.00000000000000	0.00000000000000	-13.55526600000000	0.00000000000000	
18.30159500000000	2.66999100000000	172.88704300000001	-18.00505600000000	0.31092100000000	0.00000000000000	0.07797700000000	-49.72602600000000	700.17829700000004	-43.31046300000000	0.07748900000000	0.00000000000000	-0.08411100000000	0.00000000000000	-13.18666900000000	0.00000000000000	0.00000000000000	-13.59574700000000	0.00000000000000	
18.30326600000000	4.03229100000000	182.05306500000000	-17.65346900000000	0.31367400000000	0.00000000000000	0.07831100000000	-50.53758400000000	695.33868600000005	-42.60503800000000	0.07699000000000	0.00000000000000	-0.08396900000000	0.00000000000000	-13.19055100000000	0.00000000000000	0.00000000000000	-13.63703500000000	0.00000000000000	
18.30493400000000	5.43184400000000	191.44517800000000	-17.27751500000000	0.31634600000000	0.00000000000000	0.07863100000000	-51.35220200000000	690.35767199999998	-41.87763400000000	0.07651800000000	0.00000000000000	-0.08382000000000	0.00000000000000	-13.18337200000000	0.00000000000000	0.00000000000000	-13.67863900000000	0.00000000000000	
18.30659700000000	6.86857200000000	201.05611700000000	-16.87561600000000	0.31894000000000	0.00000000000000	0.07893700000000	-52.16717400000000	685.23191499999996	-41.12855100000000	0.07607400000000	0.00000000000000	-0.08366400000000	0.00000000000000	-13.16392100000000	0.00000000000000	0.00000000000000	-13.72005400000000	0.00000000000000	
